<?xml version="1.0" encoding="utf-8"?>
<!-- Generator: Adobe Illustrator 16.0.0, SVG Export Plug-In . SVG Version: 6.00 Build 0)  -->
<!DOCTYPE svg PUBLIC "-//W3C//DTD SVG 1.1//EN" "http://www.w3.org/Graphics/SVG/1.1/DTD/svg11.dtd">
<svg version="1.1" id="Layer_1" xmlns="http://www.w3.org/2000/svg" xmlns:xlink="http://www.w3.org/1999/xlink" x="0px" y="0px"
	 width="800px" height="402px" viewBox="0 0 800 402" enable-background="new 0 0 800 402" xml:space="preserve">
<path fill="#005837" d="M0,322.062c0,0,9.473-12.348,38.73-15.267c29.256-2.919,61.79-8.127,114.407,16.03
	c52.616,24.158,99.335,44.5,120.844,52.896c21.509,8.396,97.485,36.235,187.877,13.604c0,0,66.917-17.421,112.441-79.477h226.551V0
	H0V322.062z"/>
<path fill-rule="evenodd" clip-rule="evenodd" fill="#A88968" d="M489.105,292.18h296.527V17.677H15.254v280.858
	c0,0,30.53-13.382,89.738-6.872c39.794,4.377,106.66,41.086,163.862,62.954C326.059,376.483,432.557,362.63,489.105,292.18z
	 M0,322.062c0,0,9.473-12.348,38.73-15.267c29.256-2.919,61.79-8.127,114.407,16.03c52.616,24.158,99.335,44.5,120.844,52.896
	c21.509,8.396,97.485,36.235,187.877,13.604c0,0,66.917-17.421,112.441-79.477h226.551V0H0V322.062z"/>
<path fill-rule="evenodd" clip-rule="evenodd" fill="#FFFFFF" d="M91.136,53.199l-0.028-8.911c0,0,30.654,3.002,50.291,2.794
	c20.444-0.217,52.3-4.165,52.3-4.165l-1.787,8.912c-11.318,1.234-11.849,3.252-15.887,6.052c-4.044,2.69-7.449,8.912-10.221,18.664
	l-21.478,90.575l1.731,0.505c0,0,68.533-75.385,75.122-82c12.005-11.77,14.025-18.039,14.031-22.636
	c-1.172-5.835-5.907-8.841-10.096-9.647c-1.387-0.133-3.535,0.025-7.428,0.025l1.76-10.45c0,0,24.544,4.056,40.335,4.165
	c16.927,0.118,43.258-4.165,43.258-4.165v8.912c-5.429,0.226-9.818,1.008-13.163,2.354c-5.429,2.244-12.125,6.893-20.093,13.955
	l-81.15,89.397l33.376,63.817c0,0,2.605,2.631,20.459,30.468c17.854,27.834,31.494,42.156,65.264,60.373
	c32.539,17.555,89.744-3.13,89.744-3.13c-29.754,43.271-80.816,45.39-122.184,33.317c-51.6-15.058-94.183-98.255-95.916-101.73
	l-34.531-64.787l-2.945-0.671l-10.808,55.873c-0.813,2.806-1.619,6.222-2.426,10.256c-0.813,3.926-1.212,6.951-1.212,9.08
	c-1.155,11.655,9.587,23.753,18.021,24.536v6.659c0,0-29.219-6.686-48.155-8.328c-19.271-1.672-49.545,0-49.545,0v-8.743
	c8.894-1.01,13.45-3.081,17.265-6.222c3.925-3.246,7.156-9.41,9.701-18.494L109.28,89.454c0.92-3.474,1.786-6.947,2.598-10.425
	c0,0,2.314-14.598-3.957-19.416c-5.968-4.586-9.59-5.317-11.631-5.866C94.248,53.199,91.136,53.199,91.136,53.199z M315.976,191.182
	c-5.495,22.529-16.696,40.761-27.042,40.466c-14.138-0.401-14.477-28.602-6.354-61.061c4.379-17.493,15.553-36.732,26.882-38.027
	C321.488,131.186,325.644,151.548,315.976,191.182z M356.372,182.749c5.119-30.139-3.208-65.666-45.778-65.666
	c-38.304,0-63.376,31.738-69.173,65.868c-5.119,30.138,6.147,63.38,46.868,63.38C325.001,246.331,350.576,216.878,356.372,182.749z
	 M368.963,157.438c-1.269,0.829-2.174,1.081-4.307-1.188c-1.611-1.712-0.659-2.617,0.186-3.649
	c7.147-8.729,14.116-18.93,30.8-30.471c11.312-7.828,23.439-6.694,26.831-1.208c3.176,5.137,0.877,16.438,0,20.785
	c-0.878,4.348-2.635,8.915-1.756,13.553c0,0,13.422-19.434,25.526-28.675c12.107-9.244,22.235-10.522,25.968-10.778
	c3.732-0.256,12.546,1.058,12.984,11.543l-0.219,6.137l-2.446,10.523c0,0-1.978,5.843-1.317,10.227c0,0,18.892-22.458,28.163-29.188
	c9.373-6.807,16.966-9.499,20.479-9.499s8.154-0.255,12.105,2.557c3.952,2.814,5.049,8.182,3.732,14.868
	c-1.317,6.686-6.873,29.418-16.935,75.11c-0.698,3.166-3.543,9.717,5.707,5.113c0,0,2.898-1.894,4.503-3.484
	c0.885-0.875,2.135-2.412,2.135-2.412s1.465-2.822,3.432-0.587l2.173,2.471c0,0,1.16,1.528-0.505,3.293
	c-1.664,1.761-2.979,3.233-2.979,3.233s-8.949,10.189-16.661,16.447c-7.719,6.263-19.569,11.545-24.87,11.289
	c-5.3-0.258-12.544-4.384-12.982-11.801c0,0-0.878-5.919-0.439-9.243c0.439-3.323,12.982-55.856,12.982-55.856
	s1.57-6.394-1.535-6.648c-3.104-0.256-6.617,1.79-10.788,5.881c-4.172,4.09-11.448,11.8-14.302,17.426
	c-2.854,5.626-3.293,9.242-3.293,9.242l-10.35,47.675h-37.415l16.276-70.508c0,0,3.074-13.553-3.95-9.207
	c-7.025,4.348-16.058,13.59-20.008,20.75c-3.953,7.159-4.861,8.22-5.521,12.056c-0.658,3.836-10.1,47.929-10.1,47.929h-37.415
	l18.693-83.804c0,0,3.402-10.786-4.611-6.174c-3.052,1.757-5.806,4.388-5.806,4.388S370.232,156.61,368.963,157.438z
	 M555.799,147.844c11.632-14.895,25.838-28.32,35.468-30.949c0,0,5.832-2.369,11.422-1.973c5.59,0.395,9.388,4.029,10.572,8.371
	c1.188,4.341-1.113,12.941-1.693,15.59c-0.579,2.647-15.387,68.293-15.387,68.293s-1.841,9.174,5.211,4.494
	c5.055-3.354,7.055-5.564,7.055-5.564s1.25-2.173,3.365,0.224c2.117,2.396,1.882,2.189,1.882,2.189s1.662,1.44-0.471,3.904
	c-2.132,2.465-20.708,21.159-27.248,24.944c-6.544,3.784-11.731,5.427-18.199,5.154c-6.466-0.274-13.99-7.533-12.461-16.591
	c1.528-9.057,14.831-70.401,14.831-70.401s1.438-6.007-0.759-6.911c-1.614-0.664-3.184-0.332-4.988,1.328l-6.224,5.757
	c0,0-2.519,2.877-4.181,0.497c-1.662-2.379-1.473-3.873-1.188-4.371C553.091,151.331,554.607,149.372,555.799,147.844z
	 M588.652,79.988c0-11.361,7.907-20.57,17.658-20.57c9.755,0,17.659,9.208,17.659,20.57s-7.904,20.569-17.659,20.569
	C596.56,100.557,588.652,91.35,588.652,79.988z M686.295,147.844c11.631-14.895,25.837-28.32,35.469-30.949
	c0,0,5.829-2.369,11.421-1.973c5.59,0.395,9.388,4.029,10.573,8.371c1.186,4.341-1.116,12.941-1.693,15.59
	c-0.578,2.647-15.388,68.293-15.388,68.293s-1.842,9.174,5.209,4.494c5.057-3.354,7.055-5.564,7.055-5.564s1.251-2.173,3.368,0.224
	c2.115,2.396,1.881,2.189,1.881,2.189s1.661,1.44-0.472,3.904c-2.131,2.465-20.707,21.159-27.248,24.944
	c-6.541,3.784-11.73,5.427-18.196,5.154c-6.468-0.274-13.992-7.533-12.464-16.591c1.529-9.057,14.83-70.401,14.83-70.401
	s1.441-6.007-0.757-6.911c-1.615-0.664-3.183-0.332-4.989,1.328l-6.224,5.757c0,0-2.518,2.877-4.181,0.497
	c-1.663-2.379-1.474-3.873-1.188-4.371S685.103,149.372,686.295,147.844z M719.148,79.988c0-11.361,7.906-20.57,17.658-20.57
	c9.751,0,17.658,9.208,17.658,20.57s-7.907,20.569-17.658,20.569C727.055,100.557,719.148,91.35,719.148,79.988z M637.24,77.69
	c11.629-14.894,25.835-28.32,35.466-30.95c0,0,5.831-2.368,11.422-1.973c5.592,0.396,9.39,4.029,10.574,8.371
	c1.187,4.342-1.115,12.942-1.693,15.589c-0.579,2.648-32.028,138.449-32.028,138.449s-1.841,9.174,5.213,4.494
	c5.054-3.354,7.054-5.564,7.054-5.564s1.249-2.173,3.365,0.224c2.117,2.396,1.882,2.189,1.882,2.189s1.661,1.44-0.471,3.904
	c-2.131,2.465-20.708,21.159-27.249,24.944c-6.541,3.784-11.73,5.427-18.196,5.154c-6.467-0.274-13.991-7.533-12.463-16.591
	c1.529-9.057,31.47-140.557,31.47-140.557s1.439-6.008-0.757-6.911c-1.614-0.664-3.185-0.332-4.988,1.329l-6.225,5.755
	c0,0-2.518,2.878-4.181,0.498c-1.664-2.379-1.474-3.874-1.188-4.373C634.531,81.176,636.045,79.217,637.24,77.69z"/>
</svg>
